<svg xmlns="http://www.w3.org/2000/svg" width="76" height="78" fill="none"><g clip-path="url(#a)" filter="url(#b)"><path fill="#212121" d="M71.46 33.47a33.48 33.48 0 1 0-43.66 31.9 1.48 1.48 0 0 0 1.16-.14c.3-.18.51-.45.62-.78l8.45-26.8a4.18 4.18 0 1 0-1.84-7.95L25.03 18.53a1.4 1.4 0 0 0-1.98 1.97l11.17 11.18a4.1 4.1 0 0 0 1.17 5.05l-8.06 25.53a30.72 30.72 0 1 1 23.12-.76l-.87-4.1a1.4 1.4 0 0 0-2.29-.75l-8.4 7.5a1.4 1.4 0 0 0 .51 2.36l10.72 3.42a1.4 1.4 0 0 0 1.79-1.62l-.86-4.02a33.37 33.37 0 0 0 20.41-30.82Zm-33.48-1.4a1.4 1.4 0 1 1 0 2.8 1.4 1.4 0 0 1 0-2.8Zm4.6 32.52 4.78-4.26 1.31 6.21-6.1-1.95Z"/><path fill="#2196F3" d="M36.59 6.97v2.79a1.4 1.4 0 1 0 2.79 0v-2.8a1.4 1.4 0 0 0-2.8 0ZM11.48 32.08a1.4 1.4 0 0 0 0 2.79h2.79a1.4 1.4 0 1 0 0-2.8h-2.8ZM64.49 34.87a1.4 1.4 0 1 0 0-2.8h-2.8a1.4 1.4 0 0 0 0 2.8h2.8Z"/></g><defs><clipPath id="a"><path fill="#fff" d="M3 0h70v70H3z"/></clipPath><filter id="b" width="78" height="78" x="-1" y="0" color-interpolation-filters="sRGB" filterUnits="userSpaceOnUse"><feFlood flood-opacity="0" result="BackgroundImageFix"/><feColorMatrix in="SourceAlpha" result="hardAlpha" values="0 0 0 0 0 0 0 0 0 0 0 0 0 0 0 0 0 0 127 0"/><feOffset dy="4"/><feGaussianBlur stdDeviation="2"/><feComposite in2="hardAlpha" operator="out"/><feColorMatrix values="0 0 0 0 0 0 0 0 0 0 0 0 0 0 0 0 0 0 0.25 0"/><feBlend in2="BackgroundImageFix" result="effect1_dropShadow_1_3758"/><feBlend in="SourceGraphic" in2="effect1_dropShadow_1_3758" result="shape"/></filter></defs></svg>